<?xml version="1.0" encoding="UTF-8"?>
<svg xmlns="http://www.w3.org/2000/svg" version="1.1" viewBox="0 0 1920 1080">
  <!-- Generator: Adobe Illustrator 29.5.1, SVG Export Plug-In . SVG Version: 2.1.0 Build 141)  -->
  <defs>
    <style>
      .st0 {
        fill: #fff;
      }
    </style>
  </defs>
  <g id="Layer_2">
    <rect y="1.7" width="1920" height="1078.3"/>
    <rect class="st0" x="-1940" y=".8" width="1920" height="1078.3"/>
  </g>
  <g id="Layer_1">
    <g>
      <path d="M-1112.8,261h-175.2l-61,375.6h193.5c80.4,0,130.6-39.2,144.2-109l21.8-123c21.3-104.9-25-143.7-123.2-143.7ZM-1082.6,410.2l-17.7,97.6c-7.1,35-28.7,46.9-59.6,46.9h-82.9l35-210.5h69.6c71.3,0,61.5,31.5,55.6,66Z"/>
      <path d="M-625.6,344.2l14.1-83.2h-214.3c-58.2,0-107.7,42.5-116.6,100l-27.7,179.2c-7.8,50.7,31.4,96.5,82.7,96.5h223l34.8-217.5h-146.2l-11.4,70h56.8l-11.9,65.6h-102.2c-18,0-30.8-14.1-27.7-36.9l22.2-135.6c3.7-22,22.7-38,44.9-38h179.4Z"/>
      <path d="M-1278.6,715.6c-7.9-7-19.9-10.3-34.4-10.3h-38.3v112.6h38.2c10.1,0,29.2-1.9,37-10s10.6-22.4,10.6-30.4v-31.9c0-16.3-5.3-23-13.2-30ZM-1292,773.2c0,6.1,0,15.8-3.9,19.2-3.9,3.4-9.5,6.1-16.6,6.1h-12v-72.7h12c7.2,0,11.9,2,15.8,5.4,3.9,3.4,4.7,9.8,4.7,15.9v26.1Z"/>
      <path d="M-1199.7,819c-9.1,0-24.7-1.5-36-13.3s-9.2-19.9-9.2-28.2v-31.9c0-8.4,1.9-15.7,5.6-21.9,3.7-6.2,9-11,15.8-14.5,6.8-3.4,14.7-5.1,23.8-5.1s17,1.7,23.8,5.1c6.8,3.4,12,8.3,15.8,14.5,3.7,6.2,5.6,13.5,5.6,21.9v31.9c0,8.3-1.9,15.6-5.6,21.8-3.7,6.2-9,11.1-15.8,14.5-6.8,3.4-14.7,5.1-23.8,5.1ZM-1181.7,783.8v-43.5c0-9-7.3-16.3-16.3-16.3h-3.6c-9,0-16.3,7.3-16.3,16.3v43.5c0,9,7.3,16.3,16.3,16.3h3.6c9,0,16.3-7.3,16.3-16.3Z"/>
      <path d="M-829.8,819c-9.1,0-24.7-1.5-36-13.3-6.3-6.6-9.2-19.9-9.2-28.2v-31.9c0-8.4,1.9-15.7,5.6-21.9,3.7-6.2,9-11,15.8-14.5,6.8-3.4,14.7-5.1,23.8-5.1s17,1.7,23.8,5.1c6.8,3.4,12,8.3,15.8,14.5,3.7,6.2,5.6,13.5,5.6,21.9v31.9c0,8.3-1.9,15.6-5.6,21.8-3.7,6.2-9,11.1-15.8,14.5-6.8,3.4-14.7,5.1-23.8,5.1ZM-811.7,783.8v-43.5c0-9-7.3-16.3-16.3-16.3h-3.6c-9,0-16.3,7.3-16.3,16.3v43.5c0,9,7.3,16.3,16.3,16.3h3.6c9,0,16.3-7.3,16.3-16.3Z"/>
      <polygon points="-1046.2 705.3 -1046.2 817.8 -1074 817.8 -1110 747.6 -1110 817.8 -1133.9 817.8 -1133.9 705.3 -1108.2 705.3 -1071.1 776.7 -1071.1 705.3 -1046.2 705.3"/>
      <path d="M-940.8,758.9h46.5v22c0,8.5-1.7,14.2-5.4,20.6-3.7,6.3-8,8.8-14.7,12.3-6.7,3.5-14.5,5.2-23.5,5.2s-17-1.6-23.7-4.9c-6.8-3.3-12-7.9-15.8-13.9-3.7-6-5.6-12.9-5.6-20.9v-33.2c0-8.5,1.9-16.8,5.6-23.1,3.7-6.3,8.9-10.2,15.5-13.7,6.7-3.5,14.5-5.2,23.5-5.2s17.4,1.9,23.5,4.7c18,8.3,20.2,26,21.6,32.8h-25.9c.2-3.4-1-10.5-7.4-14.5s-7.6-3-11.8-3c-6.2,0-11.2,2.8-15,6.5-3.8,3.7-3.6,12.5-3.6,18.6v30.2c0,18,12.8,20.7,19.2,20.7s17.6-5.3,17.6-18.8v-5.9h-20.5v-16.4Z"/>
      <polygon points="-694.6 797.4 -694.6 817.9 -763.2 817.9 -763.2 705.3 -737.3 705.3 -737.3 797.4 -694.6 797.4"/>
      <polygon points="-648.9 725.7 -648.9 752.8 -614.5 752.8 -614.5 773.2 -649.9 773.2 -649.9 817.9 -676.7 817.9 -676.7 705.3 -608.7 705.3 -608.7 725.7 -648.9 725.7"/>
    </g>
    <g>
      <path class="st0" d="M827.2,261h-175.2l-61,375.6h193.5c80.4,0,130.6-39.2,144.2-109l21.8-123c21.3-104.9-25-143.7-123.2-143.7ZM857.4,410.2l-17.7,97.6c-7.1,35-28.7,46.9-59.6,46.9h-82.9l35-210.5h69.6c71.3,0,61.5,31.5,55.6,66Z"/>
      <path class="st0" d="M1314.4,344.2l14.1-83.2h-214.3c-58.2,0-107.7,42.5-116.6,100l-27.7,179.2c-7.8,50.7,31.4,96.5,82.7,96.5h223l34.8-217.5h-146.2l-11.4,70h56.8l-11.9,65.6h-102.2c-18,0-30.8-14.1-27.7-36.9l22.2-135.6c3.7-22,22.7-38,44.9-38h179.4Z"/>
      <path class="st0" d="M661.4,715.6c-7.9-7-19.9-10.3-34.4-10.3h-38.3v112.6h38.2c10.1,0,29.2-1.9,37-10s10.6-22.4,10.6-30.4v-31.9c0-16.3-5.3-23-13.2-30ZM648,773.2c0,6.1,0,15.8-3.9,19.2-3.9,3.4-9.5,6.1-16.6,6.1h-12v-72.7h12c7.2,0,11.9,2,15.8,5.4,3.9,3.4,4.7,9.8,4.7,15.9v26.1Z"/>
      <path class="st0" d="M740.3,819c-9.1,0-24.7-1.5-36-13.3s-9.2-19.9-9.2-28.2v-31.9c0-8.4,1.9-15.7,5.6-21.9,3.7-6.2,9-11,15.8-14.5,6.8-3.4,14.7-5.1,23.8-5.1s17,1.7,23.8,5.1c6.8,3.4,12,8.3,15.8,14.5,3.7,6.2,5.6,13.5,5.6,21.9v31.9c0,8.3-1.9,15.6-5.6,21.8-3.7,6.2-9,11.1-15.8,14.5-6.8,3.4-14.7,5.1-23.8,5.1ZM758.3,783.8v-43.5c0-9-7.3-16.3-16.3-16.3h-3.6c-9,0-16.3,7.3-16.3,16.3v43.5c0,9,7.3,16.3,16.3,16.3h3.6c9,0,16.3-7.3,16.3-16.3Z"/>
      <path class="st0" d="M1110.2,819c-9.1,0-24.7-1.5-36-13.3-6.3-6.6-9.2-19.9-9.2-28.2v-31.9c0-8.4,1.9-15.7,5.6-21.9,3.7-6.2,9-11,15.8-14.5,6.8-3.4,14.7-5.1,23.8-5.1s17,1.7,23.8,5.1c6.8,3.4,12,8.3,15.8,14.5,3.7,6.2,5.6,13.5,5.6,21.9v31.9c0,8.3-1.9,15.6-5.6,21.8-3.7,6.2-9,11.1-15.8,14.5-6.8,3.4-14.7,5.1-23.8,5.1ZM1128.3,783.8v-43.5c0-9-7.3-16.3-16.3-16.3h-3.6c-9,0-16.3,7.3-16.3,16.3v43.5c0,9,7.3,16.3,16.3,16.3h3.6c9,0,16.3-7.3,16.3-16.3Z"/>
      <polygon class="st0" points="893.8 705.3 893.8 817.8 866 817.8 830 747.6 830 817.8 806.1 817.8 806.1 705.3 831.8 705.3 868.9 776.7 868.9 705.3 893.8 705.3"/>
      <path class="st0" d="M999.2,758.9h46.5v22c0,8.5-1.7,14.2-5.4,20.6-3.7,6.3-8,8.8-14.7,12.3-6.7,3.5-14.5,5.2-23.5,5.2s-17-1.6-23.7-4.9c-6.8-3.3-12-7.9-15.8-13.9-3.7-6-5.6-12.9-5.6-20.9v-33.2c0-8.5,1.9-16.8,5.6-23.1,3.7-6.3,8.9-10.2,15.5-13.7,6.7-3.5,14.5-5.2,23.5-5.2s17.4,1.9,23.5,4.7c18,8.3,20.2,26,21.6,32.8h-25.9c.2-3.4-1-10.5-7.4-14.5s-7.6-3-11.8-3c-6.2,0-11.2,2.8-15,6.5-3.8,3.7-3.6,12.5-3.6,18.6v30.2c0,18,12.8,20.7,19.2,20.7s17.6-5.3,17.6-18.8v-5.9h-20.5v-16.4Z"/>
      <polygon class="st0" points="1245.4 797.4 1245.4 817.9 1176.8 817.9 1176.8 705.3 1202.7 705.3 1202.7 797.4 1245.4 797.4"/>
      <polygon class="st0" points="1291.1 725.7 1291.1 752.8 1325.5 752.8 1325.5 773.2 1290.1 773.2 1290.1 817.9 1263.3 817.9 1263.3 705.3 1331.3 705.3 1331.3 725.7 1291.1 725.7"/>
    </g>
  </g>
</svg>